# xmcd
# 
# Track frame offsets:
#     150
#     21837
#     43235
#     71120
#     92988
#     115130
#     134257
#     156935
#     176210
#     198069
#     222927
# 
# Disc length: 3332
# 
# Revision: 0
# Processed by: cddbd v1.5.2PL0 Copyright (c) Steve Scherf et al.
# Submitted via: fre:ac v1.0.17
# 
DISCID=a20d020b
DTITLE=Rickie Lee Jones - Flying Cowboys
DYEAR=0
DGENRE=
TTITLE0=The Horses
TTITLE1=Just My Baby
TTITLE2=Ghetto of My Mind
TTITLE3=Rodeo Girl
TTITLE4=Satellites
TTITLE5=Ghost Train
TTITLE6=Flying Cowboys
TTITLE7=Don't Let the Sun Catch You Cryíng
TTITLE8=Love Is Gonna Bring Us Back Alive
TTITLE9=Away From the Sky
TTITLE10=Atlas' Marker
EXTD=
EXTT0=
EXTT1=
EXTT2=
EXTT3=
EXTT4=
EXTT5=
EXTT6=
EXTT7=
EXTT8=
EXTT9=
EXTT10=
PLAYORDER=
